<svg xmlns="http://www.w3.org/2000/svg" width="503" height="496" viewBox="0 0 503 496">
<g>
<path d="M 252.72 355.40 C251.50,355.63 249.82,356.04 249.00,356.30 C245.59,357.39 239.10,354.86 235.14,350.90 C231.02,346.78 229.04,342.16 227.06,332.00 C226.47,328.98 224.61,319.52 222.92,311.00 C221.24,302.48 219.64,293.72 219.36,291.54 C219.09,289.37 218.58,287.12 218.23,286.56 C217.88,286.00 217.54,284.75 217.47,283.79 C217.23,280.52 212.43,277.24 206.81,276.51 C201.99,275.88 168.77,269.59 156.50,266.98 C143.04,264.13 135.30,250.17 141.00,239.01 C145.48,230.22 147.80,229.21 175.59,223.96 C187.63,221.69 197.74,219.66 198.06,219.46 C198.39,219.26 201.02,218.82 203.90,218.50 C210.43,217.75 213.00,216.78 215.32,214.21 C216.97,212.37 222.55,187.90 227.45,161.00 C229.70,148.65 232.64,143.63 239.43,140.53 C243.67,138.60 251.92,138.24 256.02,139.81 C260.02,141.34 264.82,146.92 266.42,151.91 C267.83,156.28 273.03,181.84 276.58,201.82 C279.05,215.73 280.95,217.27 298.50,219.55 C304.50,220.33 343.57,228.80 346.00,229.85 C360.96,236.30 359.48,260.12 343.76,265.76 C341.97,266.40 328.44,269.20 313.71,271.97 C298.97,274.74 285.36,277.66 283.46,278.45 C282.57,278.82 281.87,279.04 281.26,279.41 C278.48,281.11 277.72,286.10 270.49,324.50 C267.49,340.42 266.35,344.36 263.56,348.27 C261.40,351.31 256.19,354.73 252.72,355.40 ZM 246.56 327.75 C247.11,329.57 248.78,329.28 249.39,327.25 C249.67,326.29 251.96,314.98 254.47,302.12 C259.32,277.23 261.21,271.47 266.30,266.16 C272.10,260.11 276.02,258.85 309.00,252.40 C316.42,250.95 323.17,249.77 324.00,249.78 C326.97,249.82 333.05,247.89 332.54,247.07 C332.26,246.61 329.88,245.92 327.26,245.55 C324.64,245.17 314.85,243.35 305.50,241.49 C296.15,239.64 286.54,237.82 284.13,237.46 C277.10,236.37 271.69,233.42 266.30,227.72 C261.13,222.26 258.97,217.21 257.41,207.00 C257.04,204.52 256.34,202.01 255.87,201.41 C255.40,200.81 255.24,200.09 255.52,199.82 C255.79,199.54 255.11,195.08 254.00,189.91 C252.89,184.73 251.76,178.93 251.50,177.00 C250.56,170.29 248.49,162.88 247.50,162.69 C246.95,162.59 246.37,164.07 246.20,166.00 C245.93,169.16 242.58,187.47 238.43,208.42 C236.53,218.00 233.45,224.31 228.34,229.07 C223.02,234.03 219.89,235.79 215.38,236.40 C213.24,236.69 209.70,237.38 207.50,237.94 C205.30,238.50 194.95,240.57 184.50,242.55 C174.05,244.52 164.87,246.34 164.11,246.59 C161.70,247.38 163.82,248.34 170.78,249.63 C174.47,250.31 183.57,251.98 191.00,253.35 C198.43,254.71 207.88,256.63 212.00,257.60 C216.12,258.58 220.08,259.27 220.79,259.14 C221.50,259.00 224.91,261.73 228.37,265.20 C233.38,270.21 235.00,272.62 236.28,277.00 C237.79,282.12 240.08,292.83 241.43,301.00 C241.75,302.92 242.18,305.40 242.40,306.50 C242.62,307.60 243.56,312.55 244.49,317.50 C245.42,322.45 246.35,327.06 246.56,327.75 ZM 181.00 353.44 C166.29,360.87 149.84,354.46 141.54,338.07 C136.68,328.49 138.97,314.41 146.64,306.62 C153.48,299.68 158.83,297.50 169.00,297.50 C176.14,297.50 178.34,297.92 182.74,300.10 C190.82,304.11 196.89,312.84 198.49,322.78 C199.26,327.49 197.61,336.00 195.17,340.00 C192.29,344.73 185.49,351.17 181.00,353.44 ZM 333.27 194.93 C324.99,201.76 317.00,195.92 317.00,183.03 L 317.00 178.00 L 310.72 178.00 C303.49,178.00 300.49,176.41 298.44,171.50 C297.43,169.10 297.34,167.34 298.09,164.64 C299.32,160.17 302.89,158.11 309.85,157.86 C312.62,157.77 315.30,157.42 315.80,157.09 C316.30,156.77 316.96,153.58 317.28,150.01 C318.00,141.92 320.68,139.00 327.42,139.00 C334.10,139.00 336.83,142.30 337.21,150.84 L 337.50 157.50 L 342.88 157.67 C350.85,157.93 352.61,158.64 355.02,162.54 C357.88,167.16 357.09,171.90 352.89,175.44 C350.32,177.61 348.86,178.00 343.42,178.00 L 337.00 178.00 L 337.00 184.93 C337.00,191.71 336.92,191.92 333.27,194.93 ZM 164.31 335.05 C166.23,336.22 166.98,336.78 167.77,336.84 C168.41,336.88 169.07,336.60 170.38,336.04 C170.67,335.91 171.00,335.77 171.36,335.62 C175.27,333.99 179.00,329.59 179.00,326.62 C178.99,325.45 178.12,323.06 177.04,321.30 C173.66,315.75 163.89,315.53 160.69,320.94 C157.47,326.40 158.83,331.71 164.31,335.05 Z" fill="rgb(1,1,1)" data-index="0" style="opacity: 1; visibility: visible;"></path>

<path d="M 337.50 3.01 C338.00,0.71 338.71,0.00 340.50,0.00 C342.29,0.00 343.00,0.71 343.50,3.01 C343.87,4.66 344.91,6.40 345.83,6.88 C346.75,7.35 354.70,8.00 363.50,8.32 C389.19,9.25 406.00,13.44 424.35,23.49 C453.18,39.27 473.59,63.29 480.87,90.00 C485.41,106.66 485.46,108.34 485.48,247.50 C485.50,370.98 485.38,380.11 483.68,389.00 C481.10,402.52 478.83,409.38 472.99,421.32 C465.23,437.22 449.34,455.48 434.59,465.46 C423.68,472.84 416.83,476.02 400.50,481.31 C391.65,484.17 375.10,486.02 349.50,487.00 C321.49,488.07 172.94,487.90 140.50,486.76 C118.31,485.98 103.56,484.12 94.30,480.93 C91.21,479.87 87.95,479.00 87.04,479.00 C83.67,479.00 68.24,470.62 58.38,463.43 C28.83,441.90 12.01,411.13 9.50,374.00 C8.47,358.85 8.96,127.87 10.04,114.50 C11.49,96.65 15.59,83.45 24.31,68.50 C33.07,53.48 46.81,38.97 61.00,29.76 C75.45,20.39 82.95,17.12 100.88,12.41 C115.21,8.64 133.98,8.04 238.82,8.02 C299.22,8.01 333.80,7.64 334.98,7.01 C336.00,6.46 337.13,4.66 337.50,3.01 ZM 136.00 484.94 C160.58,486.06 333.45,486.11 356.30,485.00 C382.72,483.72 392.84,481.93 411.50,475.26 C429.91,468.68 444.45,457.05 462.63,434.37 C469.39,425.94 476.56,411.01 478.89,400.50 C479.50,397.75 480.79,392.58 481.74,389.00 C483.34,383.02 483.51,372.36 483.80,255.50 C484.15,119.81 483.90,110.72 479.39,93.38 C473.70,71.48 460.91,52.16 443.18,38.67 C438.95,35.46 433.70,31.46 431.50,29.78 C422.82,23.17 401.49,14.96 385.15,11.95 C379.43,10.89 368.24,9.83 360.15,9.58 C352.09,9.34 345.14,9.11 344.70,9.07 C344.26,9.03 343.43,7.65 342.85,6.00 C341.54,2.25 340.46,2.21 338.57,5.86 L 337.10 8.71 L 324.30 9.35 C317.26,9.70 273.25,9.99 226.50,10.00 C125.88,10.03 114.28,10.51 98.00,15.36 C78.94,21.04 74.49,23.01 62.47,31.06 C52.02,38.05 44.93,44.51 37.27,54.00 C21.79,73.19 14.08,91.40 12.08,113.50 C10.72,128.58 10.47,365.36 11.80,378.50 C14.15,401.64 22.01,421.31 35.79,438.52 C44.30,449.15 47.01,451.78 59.34,461.39 C72.43,471.60 77.40,473.97 97.00,479.36 C110.68,483.12 117.45,484.09 136.00,484.94 ZM 390.00 474.68 C383.98,476.30 373.54,476.44 249.50,476.64 C241.61,476.66 234.18,476.67 227.17,476.68 C125.75,476.86 113.36,476.88 101.87,473.69 C99.48,473.03 97.12,472.22 94.01,471.25 C85.63,468.64 74.36,462.98 64.35,456.35 C56.86,451.39 40.27,434.46 37.45,428.90 C36.12,426.28 34.53,423.83 33.90,423.44 C30.29,421.21 20.54,393.40 19.03,381.03 C17.72,370.28 17.65,119.20 18.95,110.18 C19.46,106.70 20.76,101.53 21.84,98.68 C22.93,95.83 25.08,90.12 26.63,86.00 C29.36,78.73 31.32,75.06 37.41,65.89 C51.80,44.20 75.62,27.40 102.00,20.35 L 112.50 17.54 L 243.77 17.26 C337.05,17.07 377.13,17.31 382.27,18.11 C395.44,20.15 417.77,28.29 423.76,33.22 C424.46,33.80 426.32,34.99 427.90,35.88 C435.81,40.33 449.34,53.25 456.50,63.18 C465.03,75.03 473.05,93.62 475.18,106.50 C475.73,109.80 476.55,114.75 477.01,117.50 C477.48,120.25 477.89,178.98 477.93,248.00 C478.00,358.96 477.83,374.54 476.41,382.50 C474.65,392.37 468.80,411.05 466.23,415.00 C465.33,416.38 463.55,419.47 462.26,421.87 C455.84,433.90 438.83,452.50 430.79,456.30 C428.75,457.26 426.83,458.47 426.52,458.97 C426.21,459.47 422.70,461.67 418.73,463.85 C411.38,467.88 401.71,471.52 390.00,474.68 ZM 252.72 355.40 C256.19,354.73 261.40,351.31 263.56,348.27 C266.35,344.36 267.49,340.42 270.49,324.50 C277.72,286.10 278.48,281.11 281.26,279.41 C281.87,279.04 282.57,278.82 283.46,278.45 C284.17,278.15 286.56,277.55 290.04,276.77 C290.01,276.84 290.00,276.92 290.00,277.00 C290.00,277.55 290.42,278.00 290.94,278.00 C291.46,278.00 292.16,277.55 292.50,277.00 C292.69,276.70 292.64,276.43 292.43,276.24 C298.07,275.02 305.72,273.47 313.71,271.97 C328.44,269.20 341.97,266.40 343.76,265.76 C359.48,260.12 360.96,236.30 346.00,229.85 C343.57,228.80 304.50,220.33 298.50,219.55 C280.95,217.27 279.05,215.73 276.58,201.82 C273.03,181.84 267.83,156.28 266.42,151.91 C264.82,146.92 260.02,141.34 256.02,139.81 C251.92,138.24 243.67,138.60 239.43,140.53 C232.64,143.63 229.70,148.65 227.45,161.00 C222.55,187.90 216.97,212.37 215.32,214.21 C213.00,216.78 210.43,217.75 203.90,218.50 C201.02,218.82 198.39,219.26 198.06,219.46 C197.74,219.66 187.63,221.69 175.59,223.96 C147.80,229.21 145.48,230.22 141.00,239.01 C135.30,250.17 143.04,264.13 156.50,266.98 C168.77,269.59 201.99,275.88 206.81,276.51 C212.43,277.24 217.23,280.52 217.47,283.79 C217.54,284.75 217.88,286.00 218.23,286.56 C218.58,287.12 219.09,289.37 219.36,291.54 C219.64,293.72 221.24,302.48 222.92,311.00 C224.61,319.52 226.47,328.98 227.06,332.00 C229.04,342.16 231.02,346.78 235.14,350.90 C239.10,354.86 245.59,357.39 249.00,356.30 C249.82,356.04 251.50,355.63 252.72,355.40 ZM 246.56 327.75 C246.35,327.06 245.42,322.45 244.49,317.50 C243.56,312.55 242.62,307.60 242.40,306.50 C242.18,305.40 241.75,302.92 241.43,301.00 C240.11,293.01 237.89,282.59 236.38,277.34 C236.59,277.49 236.82,277.31 237.12,276.84 C238.31,274.97 238.21,274.29 236.66,273.70 C235.76,273.35 235.49,273.79 235.72,275.28 C234.48,271.90 232.68,269.52 228.37,265.20 C224.91,261.73 221.50,259.00 220.79,259.14 C220.08,259.27 216.12,258.58 212.00,257.60 C207.88,256.63 198.43,254.71 191.00,253.35 C189.66,253.10 188.27,252.85 186.86,252.59 C186.95,252.45 187.00,252.28 187.00,252.08 C187.00,251.57 185.65,250.86 184.00,250.50 C182.35,250.14 181.00,249.43 181.00,248.92 C181.00,248.41 180.31,248.00 179.46,248.00 C177.43,248.00 178.58,250.16 180.59,251.43 C176.93,250.76 173.63,250.15 171.52,249.76 C171.87,249.59 172.10,249.19 172.36,248.50 C172.68,247.68 172.47,247.00 171.91,247.00 C171.34,247.00 171.14,246.58 171.46,246.06 C171.81,245.49 170.14,245.45 168.23,245.70 C172.03,244.93 178.02,243.77 184.50,242.55 C194.95,240.57 205.30,238.50 207.50,237.94 C209.70,237.38 213.24,236.69 215.38,236.40 C219.89,235.79 223.02,234.03 228.34,229.07 C233.45,224.31 236.53,218.00 238.43,208.42 C242.58,187.47 245.93,169.16 246.20,166.00 C246.37,164.07 246.95,162.59 247.50,162.69 C248.49,162.88 250.56,170.29 251.50,177.00 C251.76,178.93 252.89,184.73 254.00,189.91 C255.11,195.08 255.79,199.54 255.52,199.82 C255.24,200.09 255.40,200.81 255.87,201.41 C256.34,202.01 257.04,204.52 257.41,207.00 C258.97,217.21 261.13,222.26 266.30,227.72 C271.69,233.42 277.10,236.37 284.13,237.46 C286.54,237.82 296.15,239.64 305.50,241.49 C314.85,243.35 324.64,245.17 327.26,245.55 C329.88,245.92 332.26,246.61 332.54,247.07 C332.60,247.16 332.57,247.27 332.48,247.38 C332.35,246.72 330.42,246.07 327.00,245.66 C324.52,245.35 323.24,245.33 324.14,245.60 C325.23,245.94 325.60,246.80 325.25,248.17 C325.23,248.24 325.21,248.30 325.19,248.37 C325.02,249.03 324.90,249.46 325.07,249.67 C325.08,249.69 325.10,249.71 325.12,249.72 C324.71,249.76 324.34,249.79 324.00,249.78 C323.17,249.77 316.42,250.95 309.00,252.40 C276.02,258.85 272.10,260.11 266.30,266.16 C261.21,271.47 259.32,277.23 254.47,302.12 C251.96,314.98 249.67,326.29 249.39,327.25 C248.78,329.28 247.11,329.57 246.56,327.75 ZM 181.00 353.44 C185.49,351.17 192.29,344.73 195.17,340.00 C197.61,336.00 199.26,327.49 198.49,322.78 C196.89,312.84 190.82,304.11 182.74,300.10 C178.34,297.92 176.14,297.50 169.00,297.50 C158.83,297.50 153.48,299.68 146.64,306.62 C138.97,314.41 136.68,328.49 141.54,338.07 C149.84,354.46 166.29,360.87 181.00,353.44 ZM 333.27 194.93 C336.92,191.92 337.00,191.71 337.00,184.93 L 337.00 178.00 L 343.42 178.00 C348.86,178.00 350.32,177.61 352.89,175.44 C357.09,171.90 357.88,167.16 355.02,162.54 C352.61,158.64 350.85,157.93 342.88,157.67 L 337.50 157.50 L 337.21 150.84 C336.83,142.30 334.10,139.00 327.42,139.00 C320.68,139.00 318.00,141.92 317.28,150.01 C316.96,153.58 316.30,156.77 315.80,157.09 C315.30,157.42 312.62,157.77 309.85,157.86 C302.89,158.11 299.32,160.17 298.09,164.64 C297.34,167.34 297.43,169.10 298.44,171.50 C300.49,176.41 303.49,178.00 310.72,178.00 L 317.00 178.00 L 317.00 183.03 C317.00,195.92 324.99,201.76 333.27,194.93 ZM 164.31 335.05 C158.83,331.71 157.47,326.40 160.69,320.94 C163.89,315.53 173.66,315.75 177.04,321.30 C178.12,323.06 178.99,325.45 179.00,326.62 C179.00,329.59 175.27,333.99 171.36,335.62 C171.00,335.77 170.67,335.91 170.38,336.04 C169.07,336.60 168.41,336.88 167.77,336.84 C166.98,336.78 166.23,336.22 164.31,335.05 ZM 228.45 345.23 C229.03,345.64 229.95,345.97 230.50,345.97 C231.17,345.97 231.17,345.72 230.50,345.23 C229.95,344.83 229.46,343.94 229.40,343.25 C229.18,340.53 228.96,340.00 228.06,340.00 C226.81,340.00 227.13,344.31 228.45,345.23 ZM 254.00 357.94 C254.00,358.52 254.23,359.00 254.50,359.00 C254.77,359.00 255.00,358.06 255.00,356.92 C255.00,354.69 252.93,354.72 252.18,356.95 C251.92,357.74 252.20,358.00 252.87,357.58 C253.49,357.20 254.00,357.36 254.00,357.94 ZM 165.25 246.32 C164.51,246.54 163.90,246.80 163.61,247.07 C163.32,247.33 163.50,247.65 163.99,247.95 C162.83,247.44 162.88,246.99 164.11,246.59 C164.24,246.54 164.64,246.45 165.25,246.32 Z" fill="rgb(248,249,251)" data-index="2" style="visibility: visible; opacity: 1;"></path>
<path d="M 136.00 484.94 C117.45,484.09 110.68,483.12 97.00,479.36 C77.40,473.97 72.43,471.60 59.34,461.39 C47.01,451.78 44.30,449.15 35.79,438.52 C22.01,421.31 14.15,401.64 11.80,378.50 C10.47,365.36 10.72,128.58 12.08,113.50 C14.08,91.40 21.79,73.19 37.27,54.00 C44.93,44.51 52.02,38.05 62.47,31.06 C74.49,23.01 78.94,21.04 98.00,15.36 C114.28,10.51 125.88,10.03 226.50,10.00 C273.25,9.99 317.26,9.70 324.30,9.35 L 337.10 8.71 L 338.57 5.86 C340.46,2.21 341.54,2.25 342.85,6.00 C343.43,7.65 344.26,9.03 344.70,9.07 C345.14,9.11 352.09,9.34 360.15,9.58 C368.24,9.83 379.43,10.89 385.15,11.95 C401.49,14.96 422.82,23.17 431.50,29.78 C433.70,31.46 438.95,35.46 443.18,38.67 C460.91,52.16 473.70,71.48 479.39,93.38 C483.90,110.72 484.15,119.81 483.80,255.50 C483.51,372.36 483.34,383.02 481.74,389.00 C480.79,392.58 479.50,397.75 478.89,400.50 C476.56,411.01 469.39,425.94 462.63,434.37 C444.45,457.05 429.91,468.68 411.50,475.26 C392.84,481.93 382.72,483.72 356.30,485.00 C333.45,486.11 160.58,486.06 136.00,484.94 ZM 390.00 474.68 C401.71,471.52 411.38,467.88 418.73,463.85 C422.70,461.67 426.21,459.47 426.52,458.97 C426.83,458.47 428.75,457.26 430.79,456.30 C438.83,452.50 455.84,433.90 462.26,421.87 C463.55,419.47 465.33,416.38 466.23,415.00 C468.80,411.05 474.65,392.37 476.41,382.50 C477.83,374.54 478.00,358.96 477.93,248.00 C477.89,178.98 477.48,120.25 477.01,117.50 C476.55,114.75 475.73,109.80 475.18,106.50 C473.05,93.62 465.03,75.03 456.50,63.18 C449.34,53.25 435.81,40.33 427.90,35.88 C426.32,34.99 424.46,33.80 423.76,33.22 C417.77,28.29 395.44,20.15 382.27,18.11 C377.13,17.31 337.05,17.07 243.77,17.26 L 112.50 17.54 L 102.00 20.35 C75.62,27.40 51.80,44.20 37.41,65.89 C31.32,75.06 29.36,78.73 26.63,86.00 C25.08,90.12 22.93,95.83 21.84,98.68 C20.76,101.53 19.46,106.70 18.95,110.18 C17.65,119.20 17.72,370.28 19.03,381.03 C20.54,393.40 30.29,421.21 33.90,423.44 C34.53,423.83 36.12,426.28 37.45,428.90 C40.27,434.46 56.86,451.39 64.35,456.35 C74.36,462.98 85.63,468.64 94.01,471.25 C113.10,477.21 103.70,476.88 249.50,476.64 C373.54,476.44 383.98,476.30 390.00,474.68 ZM 254.00 357.94 C254.00,357.36 253.49,357.20 252.87,357.58 C252.20,358.00 251.92,357.74 252.18,356.95 C252.93,354.72 255.00,354.69 255.00,356.92 C255.00,358.06 254.77,359.00 254.50,359.00 C254.23,359.00 254.00,358.52 254.00,357.94 ZM 228.45 345.23 C227.13,344.31 226.81,340.00 228.06,340.00 C228.96,340.00 229.18,340.53 229.40,343.25 C229.46,343.94 229.95,344.83 230.50,345.23 C231.17,345.72 231.17,345.97 230.50,345.97 C229.95,345.97 229.03,345.64 228.45,345.23 ZM 235.79 275.68 C235.44,273.88 235.68,273.33 236.66,273.70 C238.21,274.29 238.31,274.97 237.12,276.84 C236.49,277.83 236.14,277.52 235.79,275.68 ZM 290.00 277.00 C290.00,276.45 290.70,276.00 291.56,276.00 C292.42,276.00 292.84,276.45 292.50,277.00 C292.16,277.55 291.46,278.00 290.94,278.00 C290.42,278.00 290.00,277.55 290.00,277.00 ZM 182.75 252.28 C179.69,251.82 176.76,248.00 179.46,248.00 C180.31,248.00 181.00,248.41 181.00,248.92 C181.00,249.43 182.35,250.14 184.00,250.50 C185.65,250.86 187.00,251.57 187.00,252.08 C187.00,252.59 186.66,252.93 186.25,252.85 C185.84,252.77 184.26,252.51 182.75,252.28 ZM 169.50 249.51 C168.95,249.33 167.20,248.89 165.61,248.53 C164.01,248.18 163.11,247.52 163.61,247.07 C164.93,245.87 172.16,244.93 171.46,246.06 C171.14,246.58 171.34,247.00 171.91,247.00 C172.47,247.00 172.68,247.68 172.36,248.50 C171.79,250.00 171.39,250.14 169.50,249.51 ZM 325.25 248.17 C325.60,246.80 325.23,245.94 324.14,245.60 C323.24,245.33 324.52,245.35 327.00,245.66 C332.40,246.32 334.08,247.55 330.85,248.48 C324.49,250.32 324.68,250.33 325.25,248.17 Z" fill="rgb(244,245,246)" data-index="3" style="visibility: visible; opacity: 1;"></path>
</g>
</svg>